<mxfile host="app.diagrams.net" agent="Mozilla/5.0 (Windows NT 10.0; Win64; x64) AppleWebKit/537.36 (KHTML, like Gecko) Chrome/136.0.0.0 Safari/537.36" version="27.1.0">
  <diagram name="Page-1" id="OXiXHmUzO6Ew9FAKkKAP">
    <mxGraphModel grid="1" page="1" gridSize="10" guides="1" tooltips="1" connect="1" arrows="1" fold="1" pageScale="1" pageWidth="850" pageHeight="1100" math="0" shadow="0">
      <root>
        <mxCell id="0" />
        <mxCell id="1" parent="0" />
        <mxCell id="t9FeGa41G39lJowolSVk-1" value="" style="endArrow=none;dashed=1;html=1;dashPattern=1 3;strokeWidth=2;rounded=0;" edge="1" parent="1">
          <mxGeometry width="50" height="50" relative="1" as="geometry">
            <mxPoint x="1545" y="630" as="sourcePoint" />
            <mxPoint x="1544.5" y="207.5" as="targetPoint" />
          </mxGeometry>
        </mxCell>
        <mxCell id="t9FeGa41G39lJowolSVk-2" value="" style="endArrow=none;dashed=1;html=1;dashPattern=1 3;strokeWidth=2;rounded=0;" edge="1" parent="1">
          <mxGeometry width="50" height="50" relative="1" as="geometry">
            <mxPoint x="1415" y="630" as="sourcePoint" />
            <mxPoint x="1414.52" y="207.5" as="targetPoint" />
          </mxGeometry>
        </mxCell>
        <mxCell id="t9FeGa41G39lJowolSVk-3" value="" style="endArrow=none;dashed=1;html=1;dashPattern=1 3;strokeWidth=2;rounded=0;" edge="1" parent="1">
          <mxGeometry width="50" height="50" relative="1" as="geometry">
            <mxPoint x="1275" y="631.1111450195312" as="sourcePoint" />
            <mxPoint x="1274.52" y="207.5" as="targetPoint" />
          </mxGeometry>
        </mxCell>
        <mxCell id="t9FeGa41G39lJowolSVk-4" value="" style="endArrow=none;dashed=1;html=1;dashPattern=1 3;strokeWidth=2;rounded=0;" edge="1" parent="1">
          <mxGeometry width="50" height="50" relative="1" as="geometry">
            <mxPoint x="1135" y="630" as="sourcePoint" />
            <mxPoint x="1134.52" y="207.5" as="targetPoint" />
          </mxGeometry>
        </mxCell>
        <mxCell id="t9FeGa41G39lJowolSVk-5" value="" style="endArrow=none;dashed=1;html=1;dashPattern=1 3;strokeWidth=2;rounded=0;" edge="1" parent="1">
          <mxGeometry width="50" height="50" relative="1" as="geometry">
            <mxPoint x="1000" y="630" as="sourcePoint" />
            <mxPoint x="999.52" y="210" as="targetPoint" />
          </mxGeometry>
        </mxCell>
        <mxCell id="t9FeGa41G39lJowolSVk-6" value="" style="endArrow=none;dashed=1;html=1;dashPattern=1 3;strokeWidth=2;rounded=0;" edge="1" parent="1" source="t9FeGa41G39lJowolSVk-59">
          <mxGeometry width="50" height="50" relative="1" as="geometry">
            <mxPoint x="850" y="610" as="sourcePoint" />
            <mxPoint x="849.4399999999999" y="207.5" as="targetPoint" />
          </mxGeometry>
        </mxCell>
        <mxCell id="t9FeGa41G39lJowolSVk-7" value="" style="endArrow=none;dashed=1;html=1;dashPattern=1 3;strokeWidth=2;rounded=0;" edge="1" parent="1" source="t9FeGa41G39lJowolSVk-61">
          <mxGeometry width="50" height="50" relative="1" as="geometry">
            <mxPoint x="694" y="630" as="sourcePoint" />
            <mxPoint x="694.4399999999999" y="190" as="targetPoint" />
          </mxGeometry>
        </mxCell>
        <mxCell id="t9FeGa41G39lJowolSVk-8" value="" style="shape=umlLifeline;perimeter=lifelinePerimeter;whiteSpace=wrap;html=1;container=1;dropTarget=0;collapsible=0;recursiveResize=0;outlineConnect=0;portConstraint=eastwest;newEdgeStyle={&quot;curved&quot;:0,&quot;rounded&quot;:0};participant=umlActor;" vertex="1" parent="1">
          <mxGeometry x="365" y="170" width="20" height="380" as="geometry" />
        </mxCell>
        <mxCell id="t9FeGa41G39lJowolSVk-9" value="&lt;font style=&quot;font-size: 10px;&quot;&gt;Técnico de laboratorio,&lt;/font&gt;&lt;div&gt;&lt;font style=&quot;font-size: 10px;&quot;&gt;&amp;nbsp;Administrador&lt;/font&gt;&lt;/div&gt;" style="text;html=1;align=center;verticalAlign=middle;resizable=0;points=[];autosize=1;strokeColor=none;fillColor=none;" vertex="1" parent="1">
          <mxGeometry x="310" y="130" width="130" height="40" as="geometry" />
        </mxCell>
        <mxCell id="t9FeGa41G39lJowolSVk-10" value="" style="html=1;points=[[0,0,0,0,5],[0,1,0,0,-5],[1,0,0,0,5],[1,1,0,0,-5]];perimeter=orthogonalPerimeter;outlineConnect=0;targetShapes=umlLifeline;portConstraint=eastwest;newEdgeStyle={&quot;curved&quot;:0,&quot;rounded&quot;:0};" vertex="1" parent="1">
          <mxGeometry x="370" y="250" width="10" height="380" as="geometry" />
        </mxCell>
        <mxCell id="t9FeGa41G39lJowolSVk-11" value="&lt;font style=&quot;font-size: 10px;&quot;&gt;V_Informe&lt;/font&gt;&lt;div&gt;&lt;font style=&quot;font-size: 10px;&quot;&gt;Tecnico&lt;/font&gt;&lt;/div&gt;" style="html=1;whiteSpace=wrap;fillColor=#D5E8D4;" vertex="1" parent="1">
          <mxGeometry x="520" y="180" width="70" height="27.5" as="geometry" />
        </mxCell>
        <mxCell id="t9FeGa41G39lJowolSVk-12" value="&lt;font style=&quot;font-size: 10px;&quot;&gt;C_Admin_Informe&lt;/font&gt;" style="html=1;whiteSpace=wrap;fillColor=#DAE8FC;" vertex="1" parent="1">
          <mxGeometry x="800" y="180" width="100" height="27.5" as="geometry" />
        </mxCell>
        <mxCell id="t9FeGa41G39lJowolSVk-13" value="&lt;font style=&quot;font-size: 10px;&quot;&gt;C_sqlx&lt;/font&gt;" style="html=1;whiteSpace=wrap;fillColor=#E1D5E7;" vertex="1" parent="1">
          <mxGeometry x="965" y="180" width="70" height="27.5" as="geometry" />
        </mxCell>
        <mxCell id="t9FeGa41G39lJowolSVk-14" value="&lt;font style=&quot;font-size: 10px;&quot;&gt;C_MySQL&lt;/font&gt;" style="html=1;whiteSpace=wrap;fillColor=#DAE8FC;" vertex="1" parent="1">
          <mxGeometry x="1100" y="180" width="70" height="27.5" as="geometry" />
        </mxCell>
        <mxCell id="t9FeGa41G39lJowolSVk-15" value="&lt;font style=&quot;font-size: 10px;&quot;&gt;Cotizacion&lt;/font&gt;" style="html=1;whiteSpace=wrap;fillColor=#FFE6CC;" vertex="1" parent="1">
          <mxGeometry x="1510" y="180" width="70" height="27.5" as="geometry" />
        </mxCell>
        <mxCell id="t9FeGa41G39lJowolSVk-16" value="&lt;font style=&quot;font-size: 8px;&quot;&gt;1.Accede a la sección&amp;nbsp;&lt;/font&gt;&lt;div&gt;&lt;span style=&quot;font-size: 8px; background-color: light-dark(#ffffff, var(--ge-dark-color, #121212)); color: light-dark(rgb(0, 0, 0), rgb(255, 255, 255));&quot;&gt;&amp;nbsp;&quot;Generar Informe Técnico&quot;&lt;/span&gt;&lt;/div&gt;" style="html=1;verticalAlign=bottom;endArrow=block;curved=0;rounded=0;entryX=0;entryY=0.16;entryDx=0;entryDy=0;entryPerimeter=0;align=left;" edge="1" parent="1">
          <mxGeometry x="-0.8824" width="80" relative="1" as="geometry">
            <mxPoint x="380" y="289.99999999999994" as="sourcePoint" />
            <mxPoint x="550" y="289.99999999999994" as="targetPoint" />
            <mxPoint as="offset" />
          </mxGeometry>
        </mxCell>
        <mxCell id="t9FeGa41G39lJowolSVk-17" value="" style="html=1;points=[[0,0,0,0,5],[0,1,0,0,-5],[1,0,0,0,5],[1,1,0,0,-5]];perimeter=orthogonalPerimeter;outlineConnect=0;targetShapes=umlLifeline;portConstraint=eastwest;newEdgeStyle={&quot;curved&quot;:0,&quot;rounded&quot;:0};" vertex="1" parent="1">
          <mxGeometry x="550" y="250" width="10" height="380" as="geometry" />
        </mxCell>
        <mxCell id="t9FeGa41G39lJowolSVk-18" value="&lt;font style=&quot;font-size: 8px;&quot;&gt;15.Retorna datos del equipo&amp;nbsp;&lt;/font&gt;" style="html=1;verticalAlign=bottom;endArrow=open;dashed=1;endSize=8;curved=0;rounded=0;" edge="1" parent="1">
          <mxGeometry x="-0.0769" relative="1" as="geometry">
            <mxPoint x="689.9999999999999" y="460" as="sourcePoint" />
            <mxPoint x="560" y="460" as="targetPoint" />
            <Array as="points">
              <mxPoint x="690" y="460" />
            </Array>
            <mxPoint as="offset" />
          </mxGeometry>
        </mxCell>
        <mxCell id="t9FeGa41G39lJowolSVk-19" value="&lt;div style=&quot;text-align: left;&quot;&gt;&lt;span style=&quot;font-size: 8px; background-color: light-dark(#ffffff, var(--ge-dark-color, #121212)); color: light-dark(rgb(0, 0, 0), rgb(255, 255, 255));&quot;&gt;17..Completa diagnóstico, trabajos,&amp;nbsp;&lt;/span&gt;&lt;/div&gt;&lt;div&gt;&lt;div style=&quot;text-align: left;&quot;&gt;&lt;font style=&quot;background-color: light-dark(#ffffff, var(--ge-dark-color, #121212)); color: light-dark(rgb(0, 0, 0), rgb(255, 255, 255)); font-size: 8px;&quot;&gt;repuestos,&amp;nbsp;&lt;/font&gt;&lt;span style=&quot;color: light-dark(rgb(0, 0, 0), rgb(255, 255, 255)); font-size: 8px; background-color: light-dark(#ffffff, var(--ge-dark-color, #121212));&quot;&gt;observaciones,&amp;nbsp;&lt;/span&gt;&lt;/div&gt;&lt;div&gt;&lt;div style=&quot;text-align: left;&quot;&gt;&lt;font style=&quot;font-size: 8px;&quot;&gt;estado final&lt;/font&gt;&lt;font style=&quot;font-size: 7px;&quot;&gt; &lt;br&gt;&lt;/font&gt;&lt;/div&gt;&lt;/div&gt;&lt;/div&gt;" style="html=1;verticalAlign=bottom;endArrow=block;curved=0;rounded=0;" edge="1" parent="1">
          <mxGeometry x="-0.0588" width="80" relative="1" as="geometry">
            <mxPoint x="380" y="530" as="sourcePoint" />
            <mxPoint x="549.9999999999999" y="530" as="targetPoint" />
            <mxPoint as="offset" />
          </mxGeometry>
        </mxCell>
        <mxCell id="t9FeGa41G39lJowolSVk-20" value="" style="endArrow=block;endFill=1;html=1;edgeStyle=orthogonalEdgeStyle;align=left;verticalAlign=top;rounded=0;" edge="1" parent="1">
          <mxGeometry x="-1" relative="1" as="geometry">
            <mxPoint x="560" y="540" as="sourcePoint" />
            <mxPoint x="690" y="540" as="targetPoint" />
          </mxGeometry>
        </mxCell>
        <mxCell id="t9FeGa41G39lJowolSVk-21" value="&lt;font style=&quot;font-size: 8px;&quot;&gt;18.Valida datos y&amp;nbsp;&lt;/font&gt;&lt;font style=&quot;background-color: light-dark(#ffffff, var(--ge-dark-color, #121212)); color: light-dark(rgb(0, 0, 0), rgb(255, 255, 255)); font-size: 8px;&quot;&gt;envía al&lt;/font&gt;&lt;div&gt;&lt;font style=&quot;background-color: light-dark(#ffffff, var(--ge-dark-color, #121212)); color: light-dark(rgb(0, 0, 0), rgb(255, 255, 255)); font-size: 8px;&quot;&gt;&amp;nbsp;&lt;/font&gt;&lt;span style=&quot;color: light-dark(rgb(0, 0, 0), rgb(255, 255, 255)); font-size: 8px; background-color: light-dark(#ffffff, var(--ge-dark-color, #121212));&quot;&gt;controlador&lt;/span&gt;&lt;/div&gt;" style="edgeLabel;resizable=0;html=1;align=left;verticalAlign=bottom;" connectable="0" vertex="1" parent="t9FeGa41G39lJowolSVk-20">
          <mxGeometry x="-1" relative="1" as="geometry" />
        </mxCell>
        <mxCell id="t9FeGa41G39lJowolSVk-22" value="" style="html=1;points=[[0,0,0,0,5],[0,1,0,0,-5],[1,0,0,0,5],[1,1,0,0,-5]];perimeter=orthogonalPerimeter;outlineConnect=0;targetShapes=umlLifeline;portConstraint=eastwest;newEdgeStyle={&quot;curved&quot;:0,&quot;rounded&quot;:0};" vertex="1" parent="1">
          <mxGeometry x="690" y="250" width="10" height="90" as="geometry" />
        </mxCell>
        <mxCell id="t9FeGa41G39lJowolSVk-23" value="&lt;font style=&quot;font-size: 8px;&quot;&gt;21.Crear los componentes para&amp;nbsp;&lt;/font&gt;&lt;div&gt;&lt;font style=&quot;font-size: 8px;&quot;&gt;que&amp;nbsp;&lt;/font&gt;&lt;span style=&quot;font-size: 8px; background-color: light-dark(#ffffff, var(--ge-dark-color, #121212)); color: light-dark(rgb(0, 0, 0), rgb(255, 255, 255));&quot;&gt;sean visualizados&lt;/span&gt;&lt;/div&gt;" style="html=1;verticalAlign=bottom;endArrow=open;dashed=1;endSize=8;curved=0;rounded=0;align=left;" edge="1" parent="1">
          <mxGeometry x="0.8462" y="1" relative="1" as="geometry">
            <mxPoint x="690" y="589" as="sourcePoint" />
            <mxPoint x="560" y="589.13" as="targetPoint" />
            <mxPoint as="offset" />
          </mxGeometry>
        </mxCell>
        <mxCell id="t9FeGa41G39lJowolSVk-24" value="" style="endArrow=block;endFill=1;html=1;edgeStyle=orthogonalEdgeStyle;align=left;verticalAlign=top;rounded=0;" edge="1" parent="1">
          <mxGeometry x="-1" relative="1" as="geometry">
            <mxPoint x="560" y="300" as="sourcePoint" />
            <mxPoint x="690" y="300" as="targetPoint" />
          </mxGeometry>
        </mxCell>
        <mxCell id="t9FeGa41G39lJowolSVk-25" value="&lt;font style=&quot;font-size: 8px;&quot;&gt;2.Solicita información del equipo&lt;/font&gt;" style="edgeLabel;resizable=0;html=1;align=left;verticalAlign=bottom;" connectable="0" vertex="1" parent="t9FeGa41G39lJowolSVk-24">
          <mxGeometry x="-1" relative="1" as="geometry" />
        </mxCell>
        <mxCell id="t9FeGa41G39lJowolSVk-26" value="" style="endArrow=none;dashed=1;html=1;dashPattern=1 3;strokeWidth=2;rounded=0;" edge="1" parent="1">
          <mxGeometry width="50" height="50" relative="1" as="geometry">
            <mxPoint x="554.55" y="207.5" as="sourcePoint" />
            <mxPoint x="555" y="250.00363636363636" as="targetPoint" />
          </mxGeometry>
        </mxCell>
        <mxCell id="t9FeGa41G39lJowolSVk-27" value="&lt;font style=&quot;font-size: 8px;&quot;&gt;22. Muestra mensaje de error de validación&lt;/font&gt;&lt;div&gt;&lt;font style=&quot;font-size: 8px;&quot;&gt;&amp;nbsp; al usuario&lt;/font&gt;&lt;/div&gt;" style="html=1;verticalAlign=bottom;endArrow=open;dashed=1;endSize=8;curved=0;rounded=0;" edge="1" parent="1" target="t9FeGa41G39lJowolSVk-10">
          <mxGeometry relative="1" as="geometry">
            <mxPoint x="550" y="600" as="sourcePoint" />
            <mxPoint x="410" y="601" as="targetPoint" />
          </mxGeometry>
        </mxCell>
        <mxCell id="t9FeGa41G39lJowolSVk-28" value="&lt;font style=&quot;font-size: 10px;&quot;&gt;C_Webview2&lt;/font&gt;" style="html=1;whiteSpace=wrap;fillColor=#E1D5E7;" vertex="1" parent="1">
          <mxGeometry x="660" y="180" width="70" height="27.5" as="geometry" />
        </mxCell>
        <mxCell id="t9FeGa41G39lJowolSVk-29" value="&lt;font style=&quot;font-size: 8px;&quot;&gt;16.Mostrar formulario con campos&amp;nbsp;&lt;/font&gt;&lt;div&gt;&lt;font style=&quot;font-size: 8px;&quot;&gt;pre completados&lt;/font&gt;&lt;/div&gt;" style="html=1;verticalAlign=bottom;endArrow=open;dashed=1;endSize=8;curved=0;rounded=0;align=left;" edge="1" parent="1" target="t9FeGa41G39lJowolSVk-10">
          <mxGeometry x="0.7647" relative="1" as="geometry">
            <mxPoint x="549.9999999999999" y="470" as="sourcePoint" />
            <mxPoint x="420" y="470" as="targetPoint" />
            <Array as="points">
              <mxPoint x="550" y="470" />
            </Array>
            <mxPoint as="offset" />
          </mxGeometry>
        </mxCell>
        <mxCell id="t9FeGa41G39lJowolSVk-30" value="&lt;font style=&quot;font-size: 10px;&quot;&gt;Orden de Trabajo&lt;/font&gt;" style="html=1;whiteSpace=wrap;fillColor=#FFE6CC;" vertex="1" parent="1">
          <mxGeometry x="1240" y="180" width="70" height="27.5" as="geometry" />
        </mxCell>
        <mxCell id="t9FeGa41G39lJowolSVk-31" value="&lt;font style=&quot;font-size: 10px;&quot;&gt;Equipo&lt;/font&gt;" style="html=1;whiteSpace=wrap;fillColor=#FFE6CC;" vertex="1" parent="1">
          <mxGeometry x="1380" y="180" width="70" height="27.5" as="geometry" />
        </mxCell>
        <mxCell id="t9FeGa41G39lJowolSVk-32" value="" style="endArrow=block;endFill=1;html=1;edgeStyle=orthogonalEdgeStyle;align=left;verticalAlign=top;rounded=0;" edge="1" parent="1">
          <mxGeometry x="-1" relative="1" as="geometry">
            <mxPoint x="700" y="310" as="sourcePoint" />
            <mxPoint x="840" y="310" as="targetPoint" />
          </mxGeometry>
        </mxCell>
        <mxCell id="t9FeGa41G39lJowolSVk-33" value="&lt;span style=&quot;font-size: 8px;&quot;&gt;3&lt;/span&gt;&lt;font style=&quot;font-size: 8px;&quot;&gt;.Percibe un cambio en la pestaña&amp;nbsp;&lt;/font&gt;&lt;div&gt;&lt;font style=&quot;font-size: 8px;&quot;&gt;y notifica el evento&amp;nbsp;&lt;/font&gt;&lt;/div&gt;" style="edgeLabel;resizable=0;html=1;align=left;verticalAlign=bottom;" connectable="0" vertex="1" parent="t9FeGa41G39lJowolSVk-32">
          <mxGeometry x="-1" relative="1" as="geometry" />
        </mxCell>
        <mxCell id="t9FeGa41G39lJowolSVk-34" value="" style="endArrow=none;dashed=1;html=1;dashPattern=1 3;strokeWidth=2;rounded=0;" edge="1" parent="1" target="t9FeGa41G39lJowolSVk-35">
          <mxGeometry width="50" height="50" relative="1" as="geometry">
            <mxPoint x="849.87" y="352.5" as="sourcePoint" />
            <mxPoint x="849.4399999999999" y="207.5" as="targetPoint" />
          </mxGeometry>
        </mxCell>
        <mxCell id="t9FeGa41G39lJowolSVk-35" value="" style="html=1;points=[[0,0,0,0,5],[0,1,0,0,-5],[1,0,0,0,5],[1,1,0,0,-5]];perimeter=orthogonalPerimeter;outlineConnect=0;targetShapes=umlLifeline;portConstraint=eastwest;newEdgeStyle={&quot;curved&quot;:0,&quot;rounded&quot;:0};" vertex="1" parent="1">
          <mxGeometry x="845" y="270" width="10" height="200" as="geometry" />
        </mxCell>
        <mxCell id="t9FeGa41G39lJowolSVk-36" value="" style="endArrow=none;dashed=1;html=1;dashPattern=1 3;strokeWidth=2;rounded=0;" edge="1" parent="1" target="t9FeGa41G39lJowolSVk-37">
          <mxGeometry width="50" height="50" relative="1" as="geometry">
            <mxPoint x="999.95" y="355" as="sourcePoint" />
            <mxPoint x="999.52" y="210" as="targetPoint" />
          </mxGeometry>
        </mxCell>
        <mxCell id="t9FeGa41G39lJowolSVk-37" value="" style="html=1;points=[[0,0,0,0,5],[0,1,0,0,-5],[1,0,0,0,5],[1,1,0,0,-5]];perimeter=orthogonalPerimeter;outlineConnect=0;targetShapes=umlLifeline;portConstraint=eastwest;newEdgeStyle={&quot;curved&quot;:0,&quot;rounded&quot;:0};" vertex="1" parent="1">
          <mxGeometry x="995" y="250" width="10" height="220" as="geometry" />
        </mxCell>
        <mxCell id="t9FeGa41G39lJowolSVk-38" value="" style="endArrow=block;endFill=1;html=1;edgeStyle=orthogonalEdgeStyle;align=left;verticalAlign=top;rounded=0;" edge="1" parent="1">
          <mxGeometry x="-1" relative="1" as="geometry">
            <mxPoint x="855" y="320" as="sourcePoint" />
            <mxPoint x="995" y="320" as="targetPoint" />
          </mxGeometry>
        </mxCell>
        <mxCell id="t9FeGa41G39lJowolSVk-39" value="&lt;span style=&quot;font-size: 8px;&quot;&gt;4.Prepara la solicitud y entrega la&lt;/span&gt;&lt;div&gt;&lt;span style=&quot;font-size: 8px;&quot;&gt;&amp;nbsp;información a sqlx&amp;nbsp;&lt;/span&gt;&lt;/div&gt;" style="edgeLabel;resizable=0;html=1;align=left;verticalAlign=bottom;" connectable="0" vertex="1" parent="t9FeGa41G39lJowolSVk-38">
          <mxGeometry x="-1" relative="1" as="geometry" />
        </mxCell>
        <mxCell id="t9FeGa41G39lJowolSVk-40" value="" style="html=1;points=[[0,0,0,0,5],[0,1,0,0,-5],[1,0,0,0,5],[1,1,0,0,-5]];perimeter=orthogonalPerimeter;outlineConnect=0;targetShapes=umlLifeline;portConstraint=eastwest;newEdgeStyle={&quot;curved&quot;:0,&quot;rounded&quot;:0};" vertex="1" parent="1">
          <mxGeometry x="1130" y="250" width="10" height="220" as="geometry" />
        </mxCell>
        <mxCell id="t9FeGa41G39lJowolSVk-41" value="" style="endArrow=block;endFill=1;html=1;edgeStyle=orthogonalEdgeStyle;align=left;verticalAlign=top;rounded=0;" edge="1" parent="1">
          <mxGeometry x="-1" relative="1" as="geometry">
            <mxPoint x="1005" y="332.02" as="sourcePoint" />
            <mxPoint x="1120" y="332" as="targetPoint" />
          </mxGeometry>
        </mxCell>
        <mxCell id="t9FeGa41G39lJowolSVk-42" value="&lt;span style=&quot;font-size: 8px;&quot;&gt;5.Solicita los datos en la base&lt;/span&gt;" style="edgeLabel;resizable=0;html=1;align=left;verticalAlign=bottom;" connectable="0" vertex="1" parent="t9FeGa41G39lJowolSVk-41">
          <mxGeometry x="-1" relative="1" as="geometry" />
        </mxCell>
        <mxCell id="t9FeGa41G39lJowolSVk-43" value="&lt;font style=&quot;font-size: 8px;&quot;&gt;6. Realiza la consulta&lt;/font&gt;&lt;div&gt;&lt;font style=&quot;font-size: 8px;&quot;&gt;en la base de datos&lt;/font&gt;&lt;/div&gt;" style="html=1;verticalAlign=bottom;endArrow=block;curved=0;rounded=0;align=left;" edge="1" parent="1" target="t9FeGa41G39lJowolSVk-44">
          <mxGeometry x="-0.6923" width="80" relative="1" as="geometry">
            <mxPoint x="1140" y="340" as="sourcePoint" />
            <mxPoint x="1260" y="340" as="targetPoint" />
            <mxPoint as="offset" />
          </mxGeometry>
        </mxCell>
        <mxCell id="t9FeGa41G39lJowolSVk-44" value="" style="html=1;points=[[0,0,0,0,5],[0,1,0,0,-5],[1,0,0,0,5],[1,1,0,0,-5]];perimeter=orthogonalPerimeter;outlineConnect=0;targetShapes=umlLifeline;portConstraint=eastwest;newEdgeStyle={&quot;curved&quot;:0,&quot;rounded&quot;:0};" vertex="1" parent="1">
          <mxGeometry x="1270" y="250" width="10" height="220" as="geometry" />
        </mxCell>
        <mxCell id="t9FeGa41G39lJowolSVk-45" value="&lt;div&gt;&lt;font style=&quot;font-size: 8px;&quot;&gt;7. Realiza un join en base a &lt;br&gt;&lt;/font&gt;&lt;/div&gt;&lt;div&gt;&lt;font style=&quot;font-size: 8px;&quot;&gt;la id&lt;/font&gt;&lt;/div&gt;" style="html=1;verticalAlign=bottom;endArrow=block;curved=0;rounded=0;align=left;" edge="1" parent="1" target="t9FeGa41G39lJowolSVk-46">
          <mxGeometry x="-0.7143" width="80" relative="1" as="geometry">
            <mxPoint x="1270" y="359.52" as="sourcePoint" />
            <mxPoint x="1390" y="360" as="targetPoint" />
            <mxPoint as="offset" />
          </mxGeometry>
        </mxCell>
        <mxCell id="t9FeGa41G39lJowolSVk-46" value="" style="html=1;points=[[0,0,0,0,5],[0,1,0,0,-5],[1,0,0,0,5],[1,1,0,0,-5]];perimeter=orthogonalPerimeter;outlineConnect=0;targetShapes=umlLifeline;portConstraint=eastwest;newEdgeStyle={&quot;curved&quot;:0,&quot;rounded&quot;:0};" vertex="1" parent="1">
          <mxGeometry x="1410" y="250" width="10" height="220" as="geometry" />
        </mxCell>
        <mxCell id="t9FeGa41G39lJowolSVk-47" value="&lt;div&gt;&lt;font style=&quot;font-size: 8px;&quot;&gt;8. Realiza un join en base a &lt;br&gt;&lt;/font&gt;&lt;/div&gt;&lt;div&gt;&lt;font style=&quot;font-size: 8px;&quot;&gt;la id&lt;/font&gt;&lt;/div&gt;" style="html=1;verticalAlign=bottom;endArrow=block;curved=0;rounded=0;align=left;" edge="1" parent="1">
          <mxGeometry x="-0.6923" width="80" relative="1" as="geometry">
            <mxPoint x="1410" y="370" as="sourcePoint" />
            <mxPoint x="1540" y="370" as="targetPoint" />
            <mxPoint as="offset" />
          </mxGeometry>
        </mxCell>
        <mxCell id="t9FeGa41G39lJowolSVk-48" value="" style="html=1;points=[[0,0,0,0,5],[0,1,0,0,-5],[1,0,0,0,5],[1,1,0,0,-5]];perimeter=orthogonalPerimeter;outlineConnect=0;targetShapes=umlLifeline;portConstraint=eastwest;newEdgeStyle={&quot;curved&quot;:0,&quot;rounded&quot;:0};" vertex="1" parent="1">
          <mxGeometry x="1540" y="250" width="10" height="220" as="geometry" />
        </mxCell>
        <mxCell id="t9FeGa41G39lJowolSVk-49" value="&lt;font style=&quot;font-size: 8px;&quot;&gt;9.retorna datos de cotizacion&lt;/font&gt;" style="html=1;verticalAlign=bottom;endArrow=open;dashed=1;endSize=8;curved=0;rounded=0;align=left;" edge="1" parent="1">
          <mxGeometry x="0.8333" relative="1" as="geometry">
            <mxPoint x="1540" y="399.63" as="sourcePoint" />
            <mxPoint x="1420" y="400" as="targetPoint" />
            <mxPoint as="offset" />
          </mxGeometry>
        </mxCell>
        <mxCell id="t9FeGa41G39lJowolSVk-50" value="&lt;font style=&quot;font-size: 8px;&quot;&gt;10.retorna datos de equipos&lt;/font&gt;" style="html=1;verticalAlign=bottom;endArrow=open;dashed=1;endSize=8;curved=0;rounded=0;align=left;" edge="1" parent="1" target="t9FeGa41G39lJowolSVk-44">
          <mxGeometry x="0.8333" relative="1" as="geometry">
            <mxPoint x="1410" y="410" as="sourcePoint" />
            <mxPoint x="1290" y="410.37" as="targetPoint" />
            <mxPoint as="offset" />
          </mxGeometry>
        </mxCell>
        <mxCell id="t9FeGa41G39lJowolSVk-51" value="&lt;font style=&quot;font-size: 8px;&quot;&gt;11. La tabla devuelve los datos&lt;/font&gt;&lt;div&gt;&lt;font style=&quot;font-size: 8px;&quot;&gt;de la consulta&lt;/font&gt;&lt;/div&gt;" style="html=1;verticalAlign=bottom;endArrow=open;dashed=1;endSize=8;curved=0;rounded=0;align=left;" edge="1" parent="1">
          <mxGeometry x="0.8462" relative="1" as="geometry">
            <mxPoint x="1270" y="420" as="sourcePoint" />
            <mxPoint x="1140" y="420" as="targetPoint" />
            <mxPoint as="offset" />
          </mxGeometry>
        </mxCell>
        <mxCell id="t9FeGa41G39lJowolSVk-52" value="&lt;font style=&quot;font-size: 8px;&quot;&gt;12. Envía los datos&lt;/font&gt;&lt;div&gt;&lt;font style=&quot;font-size: 8px;&quot;&gt;a sqlx&lt;/font&gt;&lt;/div&gt;" style="html=1;verticalAlign=bottom;endArrow=open;dashed=1;endSize=8;curved=0;rounded=0;align=left;" edge="1" parent="1">
          <mxGeometry x="0.5" relative="1" as="geometry">
            <mxPoint x="1130" y="430" as="sourcePoint" />
            <mxPoint x="1010" y="430" as="targetPoint" />
            <mxPoint as="offset" />
          </mxGeometry>
        </mxCell>
        <mxCell id="t9FeGa41G39lJowolSVk-53" value="&lt;font style=&quot;font-size: 8px;&quot;&gt;13. Transferir los datos al controlador&lt;/font&gt;" style="html=1;verticalAlign=bottom;endArrow=open;dashed=1;endSize=8;curved=0;rounded=0;entryX=1.5;entryY=0.85;entryDx=0;entryDy=0;entryPerimeter=0;" edge="1" parent="1" target="t9FeGa41G39lJowolSVk-35">
          <mxGeometry x="0.0043" relative="1" as="geometry">
            <mxPoint x="995" y="440" as="sourcePoint" />
            <mxPoint x="860" y="440" as="targetPoint" />
            <mxPoint as="offset" />
          </mxGeometry>
        </mxCell>
        <mxCell id="t9FeGa41G39lJowolSVk-54" value="&lt;font style=&quot;font-size: 8px;&quot;&gt;14. Procesa los datos&lt;/font&gt;&lt;div&gt;&lt;font style=&quot;font-size: 8px;&quot;&gt;y se envían a webview&lt;/font&gt;&lt;/div&gt;" style="html=1;verticalAlign=bottom;endArrow=open;dashed=1;endSize=8;curved=0;rounded=0;align=left;" edge="1" parent="1">
          <mxGeometry x="0.4483" relative="1" as="geometry">
            <mxPoint x="845" y="450" as="sourcePoint" />
            <mxPoint x="700" y="450" as="targetPoint" />
            <mxPoint as="offset" />
          </mxGeometry>
        </mxCell>
        <mxCell id="t9FeGa41G39lJowolSVk-55" value="" style="endArrow=block;endFill=1;html=1;edgeStyle=orthogonalEdgeStyle;align=left;verticalAlign=top;rounded=0;" edge="1" parent="1">
          <mxGeometry x="-1" relative="1" as="geometry">
            <mxPoint x="700" y="550" as="sourcePoint" />
            <mxPoint x="840" y="550" as="targetPoint" />
          </mxGeometry>
        </mxCell>
        <mxCell id="t9FeGa41G39lJowolSVk-56" value="&lt;font style=&quot;font-size: 8px;&quot;&gt;19.Percibe un cambio en la pestaña&amp;nbsp;&lt;/font&gt;&lt;div&gt;&lt;font style=&quot;font-size: 8px;&quot;&gt;y notifica el evento&amp;nbsp;&lt;/font&gt;&lt;/div&gt;" style="edgeLabel;resizable=0;html=1;align=left;verticalAlign=bottom;" connectable="0" vertex="1" parent="t9FeGa41G39lJowolSVk-55">
          <mxGeometry x="-1" relative="1" as="geometry" />
        </mxCell>
        <mxCell id="t9FeGa41G39lJowolSVk-57" value="&lt;font style=&quot;font-size: 8px;&quot;&gt;20. Error en la validación de datos&lt;/font&gt;&lt;div&gt;&lt;font style=&quot;font-size: 8px;&quot;&gt;y se envían a webview&lt;/font&gt;&lt;/div&gt;" style="html=1;verticalAlign=bottom;endArrow=open;dashed=1;endSize=8;curved=0;rounded=0;align=left;" edge="1" parent="1">
          <mxGeometry x="0.8621" relative="1" as="geometry">
            <mxPoint x="845" y="580" as="sourcePoint" />
            <mxPoint x="700" y="580" as="targetPoint" />
            <mxPoint as="offset" />
          </mxGeometry>
        </mxCell>
        <mxCell id="t9FeGa41G39lJowolSVk-58" value="" style="endArrow=none;dashed=1;html=1;dashPattern=1 3;strokeWidth=2;rounded=0;" edge="1" parent="1" target="t9FeGa41G39lJowolSVk-59">
          <mxGeometry width="50" height="50" relative="1" as="geometry">
            <mxPoint x="850" y="630" as="sourcePoint" />
            <mxPoint x="849.4399999999999" y="207.5" as="targetPoint" />
          </mxGeometry>
        </mxCell>
        <mxCell id="t9FeGa41G39lJowolSVk-59" value="" style="html=1;points=[[0,0,0,0,5],[0,1,0,0,-5],[1,0,0,0,5],[1,1,0,0,-5]];perimeter=orthogonalPerimeter;outlineConnect=0;targetShapes=umlLifeline;portConstraint=eastwest;newEdgeStyle={&quot;curved&quot;:0,&quot;rounded&quot;:0};" vertex="1" parent="1">
          <mxGeometry x="845" y="520" width="10" height="80" as="geometry" />
        </mxCell>
        <mxCell id="t9FeGa41G39lJowolSVk-60" value="" style="endArrow=none;dashed=1;html=1;dashPattern=1 3;strokeWidth=2;rounded=0;" edge="1" parent="1" source="t9FeGa41G39lJowolSVk-63" target="t9FeGa41G39lJowolSVk-61">
          <mxGeometry width="50" height="50" relative="1" as="geometry">
            <mxPoint x="694" y="630" as="sourcePoint" />
            <mxPoint x="694.4399999999999" y="190" as="targetPoint" />
          </mxGeometry>
        </mxCell>
        <mxCell id="t9FeGa41G39lJowolSVk-61" value="" style="html=1;points=[[0,0,0,0,5],[0,1,0,0,-5],[1,0,0,0,5],[1,1,0,0,-5]];perimeter=orthogonalPerimeter;outlineConnect=0;targetShapes=umlLifeline;portConstraint=eastwest;newEdgeStyle={&quot;curved&quot;:0,&quot;rounded&quot;:0};" vertex="1" parent="1">
          <mxGeometry x="690" y="420" width="10" height="60" as="geometry" />
        </mxCell>
        <mxCell id="t9FeGa41G39lJowolSVk-62" value="" style="endArrow=none;dashed=1;html=1;dashPattern=1 3;strokeWidth=2;rounded=0;" edge="1" parent="1" source="t9FeGa41G39lJowolSVk-65" target="t9FeGa41G39lJowolSVk-63">
          <mxGeometry width="50" height="50" relative="1" as="geometry">
            <mxPoint x="694" y="630" as="sourcePoint" />
            <mxPoint x="694" y="480" as="targetPoint" />
          </mxGeometry>
        </mxCell>
        <mxCell id="t9FeGa41G39lJowolSVk-63" value="" style="html=1;points=[[0,0,0,0,5],[0,1,0,0,-5],[1,0,0,0,5],[1,1,0,0,-5]];perimeter=orthogonalPerimeter;outlineConnect=0;targetShapes=umlLifeline;portConstraint=eastwest;newEdgeStyle={&quot;curved&quot;:0,&quot;rounded&quot;:0};" vertex="1" parent="1">
          <mxGeometry x="690" y="520" width="10" height="40" as="geometry" />
        </mxCell>
        <mxCell id="t9FeGa41G39lJowolSVk-64" value="" style="endArrow=none;dashed=1;html=1;dashPattern=1 3;strokeWidth=2;rounded=0;" edge="1" parent="1" target="t9FeGa41G39lJowolSVk-65">
          <mxGeometry width="50" height="50" relative="1" as="geometry">
            <mxPoint x="694" y="630" as="sourcePoint" />
            <mxPoint x="694" y="560" as="targetPoint" />
          </mxGeometry>
        </mxCell>
        <mxCell id="t9FeGa41G39lJowolSVk-65" value="" style="html=1;points=[[0,0,0,0,5],[0,1,0,0,-5],[1,0,0,0,5],[1,1,0,0,-5]];perimeter=orthogonalPerimeter;outlineConnect=0;targetShapes=umlLifeline;portConstraint=eastwest;newEdgeStyle={&quot;curved&quot;:0,&quot;rounded&quot;:0};" vertex="1" parent="1">
          <mxGeometry x="690" y="570" width="10" height="40" as="geometry" />
        </mxCell>
      </root>
    </mxGraphModel>
  </diagram>
</mxfile>
